<svg width="144" height="40" viewBox="0 0 144 40" fill="none" xmlns="http://www.w3.org/2000/svg" class="">
    <path d="M140.467 28.3064C139.691 28.479 138.614 28.6516 137.45 28.6516C135.855 28.6516 134.347 28.0906 134.347 26.4941C134.347 25.027 135.51 23.9914 137.579 23.9914C138.657 23.9914 139.734 24.2503 140.467 24.5523V28.3064ZM140.467 21.7907C139.519 21.3592 138.269 21.1435 137.062 21.1435C133.959 21.1435 130.855 22.8263 130.855 26.4941C130.855 30.4639 134.174 31.5858 137.665 31.5858C140.122 31.5858 142.449 31.0248 144.001 30.4639V19.7627C144.001 15.9655 140.682 14.2395 137.407 14.2395C135.252 14.2395 133.226 14.7141 131.416 16.7422L133.398 18.8134C134.217 17.8641 135.597 17.4326 136.933 17.4326C138.743 17.3894 140.424 18.2524 140.424 19.8921V21.7907H140.467ZM130.381 28.4358C128.442 28.4358 126.675 28.2632 126.675 25.6311V17.7778H129.864V14.5415H126.675L126.33 10.6149H123.141V25.6742C123.141 29.9029 125.77 31.6721 129.045 31.6721C129.476 31.6721 129.907 31.6289 130.381 31.5858V28.4358ZM117.968 21.6181H111.805V20.1079C111.762 18.4682 113.271 17.6915 114.865 17.6915C116.417 17.6915 117.925 18.5113 117.925 20.0647V21.6181H117.968ZM117.882 26.4941C117.279 27.7454 115.986 28.1769 114.779 28.1769C113.271 28.1769 111.805 27.2708 111.805 25.7605V24.5955H121.373V19.9784C121.373 16.0518 118.055 14.2395 114.865 14.2395C111.59 14.2395 108.228 16.0949 108.228 19.9784V25.8468C108.228 29.6872 111.547 31.5858 114.865 31.5858C117.063 31.5858 119.563 30.4639 120.856 28.1769L117.882 26.4941ZM98.2716 21.3161V8.37109H94.7374V31.2837H98.2716V25.4585L99.2629 24.466L104.521 31.3269H108.702L101.763 22.3085L108.745 14.5847H104.263L98.2716 21.3161ZM80.0832 25.8468C80.0832 29.7303 83.402 31.5858 86.6776 31.5858C89.3067 31.5858 92.3237 30.3776 93.2288 27.1845L89.9532 25.9763C89.5222 27.4434 88.0568 28.1338 86.6776 28.1338C85.126 28.1338 83.6175 27.3139 83.6175 25.89V19.9353C83.6175 18.4682 85.2984 17.6915 86.8069 17.6915C88.1861 17.6915 89.4791 18.3819 89.9101 19.849L93.1427 18.6408C92.2375 15.4477 89.2636 14.2395 86.6345 14.2395C83.3589 14.2395 80.0401 16.0949 80.0401 20.0216L80.0832 25.8468ZM74.5664 28.3064C73.7906 28.479 72.7131 28.6516 71.5494 28.6516C69.9115 28.6516 68.4461 28.0906 68.4461 26.4941C68.4461 25.027 69.6098 23.9914 71.6787 23.9914C72.7562 23.9914 73.8337 24.2503 74.5664 24.5523V28.3064ZM74.5664 21.7907C73.6182 21.3592 72.3683 21.1435 71.1614 21.1435C68.0582 21.1435 64.955 22.8263 64.955 26.4941C64.955 30.4639 68.2737 31.5858 71.7649 31.5858C74.2216 31.5858 76.549 31.0248 78.1006 30.4639V19.7627C78.1006 15.9655 74.7819 14.2395 71.5063 14.2395C69.3943 14.2395 67.3255 14.7141 65.5153 16.7422L67.4979 18.8134C68.3168 17.8641 69.696 17.4326 71.0321 17.4326C72.8424 17.3894 74.5233 18.2524 74.5233 19.8921L74.5664 21.7907ZM51.3784 19.9353V12.1251H56.5504C59.3088 12.1251 60.7743 14.0669 60.7743 15.9655C60.7743 17.8641 59.395 19.8921 56.5504 19.8921H51.3784V19.9353ZM47.7148 31.2837H51.3784V23.3873H56.5935C61.8087 23.3873 64.4809 19.7627 64.4809 15.9655C64.4809 12.2546 61.8518 8.41424 56.5504 8.41424H47.7148V31.2837Z" fill="white"></path>
    <path fill-rule="evenodd" clip-rule="evenodd" d="M19.3971 16.0518L18.4489 16.4833L17.5007 16.0518L4.48438 9.57929L10.6908 7.20604L24.052 13.7217L19.3971 16.0518ZM32.4996 9.57929L27.8448 11.8662L14.3113 5.82525L18.5351 4.18555L32.4996 9.57929Z" fill="white"></path>
    <path fill-rule="evenodd" clip-rule="evenodd" d="M18.9642 0.0431493L36.1181 6.68824L33.7045 8.62999L18.4901 2.6753L3.23253 8.58684L0.818908 6.64509L17.9729 0H18.9642V0.0431493ZM34.0924 9.14779L36.937 8.06904L34.8251 25.6742L34.3941 26.4509L19.3521 40L18.878 36.8932L32.2822 24.8544L34.0924 9.14779ZM2.54292 26.4509L2.11192 25.6742L0 8.06904L2.84463 9.14779L4.69794 24.8112L18.1022 36.8501L17.6281 39.9569L2.54292 26.4509Z" fill="white"></path>
    <path fill-rule="evenodd" clip-rule="evenodd" d="M28.1895 12.4273L32.4996 9.75195L30.8186 23.9483L18.5781 34.9515L19.2246 17.9073L24.6122 14.5847L24.2674 22.9558L27.5861 20.6257L28.1895 12.4273Z" fill="#AAAAAA"></path>
    <path fill-rule="evenodd" clip-rule="evenodd" d="M17.7163 17.9073L18.3628 34.9515L6.16542 23.9483L4.44141 9.75195L17.7163 17.9073Z" fill="#D7D7D7"></path>
</svg>