<?xml version="1.0" encoding="utf-8"?>
<svg version="1.1" id="Vrstva_1" xmlns="http://www.w3.org/2000/svg" xmlns:xlink="http://www.w3.org/1999/xlink" x="0px" y="0px"
	 viewBox="0 0 171 40" style="enable-background:new 0 0 171 40;" xml:space="preserve">
<style type="text/css">
	.st0{fill-rule:evenodd;clip-rule:evenodd;fill:#ffffff;}
</style>
<g>
	<g>
		<g>
			<path class="st0" d="M19,16.5L18,17l-0.9-0.4L4.4,10.2l6-2.3l13.1,6.4L19,16.5z M31.7,10.2l-4.6,2.2L13.9,6.5L18,4.9L31.7,10.2z
				 M2.1,25.9l0.4,0.8L17.2,40l0.5-3L4.6,25.1L2.8,9.8L0,8.7L2.1,25.9z M33.3,9.8l-1.8,15.4L18.4,36.9l0.5,3.1l14.7-13.3l0.4-0.8
				l2.1-17.2L33.3,9.8z M17.6,0.8L0.8,7.3l2.4,1.9L18,3.4l14.9,5.8l2.3-1.9L18.5,0.8H17.6z M153.5,15c0.9,0.4,1.7,1.1,2.3,1.9
				c0.6,0.9,0.9,2.1,0.9,3.2V31h-3.4V20.1c0-0.6-0.3-1.2-0.7-1.6c-0.5-0.4-1-0.7-1.6-0.8c-0.6-0.2-1.3-0.2-1.9-0.1
				c-0.6,0.1-1.1,0.2-1.6,0.5V31H144V15.5c0.3,0,0.6-0.1,0.9-0.2c0.4-0.1,0.9-0.3,1.7-0.6c0.9-0.3,1.9-0.4,2.8-0.4
				c0.1,0,0.1,0,0.2,0c0.3,0,0.6,0,0.9,0C151.4,14.4,152.5,14.6,153.5,15L153.5,15z M143.3,15.5L137.9,31h-3.7l-5.4-15.5
				c1.2,0,2.3-0.3,3.3-1l3.3,9.6l0.5,3.3h0.3l0.5-3.3l3.3-9.6C141,15.2,142.1,15.5,143.3,15.5L143.3,15.5z M86.8,21.9
				c0.8,0.3,1.5,0.8,2,1.5c0.6,0.8,0.9,1.8,0.8,2.8c0,1.1-0.3,2.2-1,3.2c-0.7,0.8-1.5,1.4-2.5,1.7c-1.1,0.3-2.2,0.4-3.3,0.3
				c-1.1-0.2-2.2-0.6-3.2-1.2c-1-0.7-1.8-1.6-2.3-2.7l2.6-1.7c0.4,0.7,1,1.3,1.6,1.7c0.6,0.4,1.3,0.6,2,0.7c0.6,0.1,1.2-0.1,1.8-0.4
				c0.2-0.2,0.4-0.4,0.6-0.6c0.1-0.3,0.2-0.5,0.2-0.8c0-0.2,0-0.4-0.1-0.5s-0.2-0.3-0.3-0.4c-0.3-0.3-0.6-0.4-1-0.6
				c-0.4-0.1-0.8-0.2-1.2-0.3c-0.6-0.1-1.3-0.3-1.9-0.5c-0.7-0.2-1.3-0.5-1.9-0.9s-1.1-0.9-1.5-1.5c-0.3-0.6-0.5-1.3-0.6-2v-0.1
				c0-0.1,0-0.2,0-0.3c0-1.1,0.3-2.1,1-2.9c0.6-0.7,1.4-1.3,2.3-1.6s1.9-0.5,2.8-0.5s1.9,0.2,2.7,0.6c1,0.4,1.9,1,2.6,1.8L86.9,19
				c-0.5-0.5-1-0.8-1.7-1c-0.6-0.2-1.3-0.4-1.9-0.4s-1.1,0.1-1.6,0.4c-0.2,0.1-0.4,0.3-0.5,0.4C81.1,18.6,81,18.8,81,19
				s0,0.5,0.1,0.7s0.2,0.4,0.3,0.6c0.3,0.3,0.7,0.5,1.2,0.7s0.9,0.3,1.4,0.3C85.1,21.3,86,21.6,86.8,21.9L86.8,21.9z M94.2,9.1
				c0.4,0.4,0.6,1,0.6,1.6s-0.2,1.1-0.6,1.6c-0.2,0.2-0.5,0.4-0.7,0.5c-0.3,0.1-0.6,0.2-0.9,0.2s-0.6,0-0.8-0.2
				c-0.3-0.1-0.5-0.3-0.7-0.5s-0.4-0.4-0.5-0.7s-0.2-0.6-0.2-0.8c0-0.3,0-0.6,0.2-0.9c0.1-0.3,0.3-0.5,0.5-0.7s0.4-0.4,0.7-0.5
				c0.3-0.1,0.5-0.2,0.8-0.2s0.6,0,0.9,0.2C93.7,8.7,94,8.9,94.2,9.1z M103,27.9V8.5h3.5v12.7l1.6-1.8l0,0l4.2-4.8h4.4l-6.8,7.6
				l6.8,8.9h-4.1l-5.2-6.7l-1,1V31l-3.3,0.1H103c-0.1,0-0.1,0-0.2,0h-0.2c-2.2-0.2-3.8-0.7-4.7-1.5c-0.6-0.5-1-1.2-1.3-1.9
				c-0.3-0.7-0.4-1.5-0.4-2.2v-17h3.5v17c0,0.3,0,0.6,0.2,0.9c0.1,0.3,0.3,0.6,0.5,0.8C101.2,27.6,102.1,27.9,103,27.9L103,27.9z
				 M94.4,31h-3.5V14.5h3.5V31L94.4,31z M71.5,13.5H68l2.2-3.7h4.3L71.5,13.5z M169.7,16.7c-0.6-0.8-1.5-1.4-2.4-1.8
				c-1-0.4-2-0.6-3.1-0.6s-2.1,0.2-3.1,0.6c-1.1,0.5-2.1,1.2-2.9,2.1l2,1.9c0.5-0.5,1.1-0.9,1.8-1.2c0.7-0.2,1.4-0.3,2.2-0.2
				c0.7,0.1,1.3,0.3,1.9,0.7c0.6,0.4,0.9,1.1,1,1.8v1c-1-0.4-2-0.6-3-0.7s-2.1,0.1-3,0.5c-1,0.3-1.9,1-2.5,1.9s-0.9,1.9-0.9,3
				c0,1.2,0.3,2.3,0.9,3.4c0.5,0.8,1.3,1.5,2.2,1.9c1,0.4,2,0.6,3.1,0.7s2.3,0,3.4-0.2c1.1-0.2,2.2-0.5,3.2-0.9V19.7
				C170.6,18.6,170.3,17.6,169.7,16.7L169.7,16.7z M167.2,28.1c-0.7,0.2-1.3,0.3-2,0.4s-1.3,0-2-0.1c-0.6-0.1-1.1-0.4-1.5-0.9
				c-0.4-0.6-0.6-1.2-0.5-1.9c0-0.3,0.1-0.6,0.2-0.9c0.1-0.3,0.3-0.5,0.5-0.7c0.5-0.4,1-0.6,1.6-0.6c0.6-0.1,1.3-0.1,1.9,0
				c0.6,0.1,1.1,0.2,1.7,0.5L167.2,28.1L167.2,28.1z M128.6,18.2c-0.2-0.5-0.4-1-0.7-1.4c-0.6-0.8-1.4-1.5-2.4-1.9s-2-0.6-3.1-0.6
				c-0.2,0-0.5,0-0.7,0.1c-0.8,0.1-1.6,0.3-2.4,0.6c-0.6,0.2-1.1,0.6-1.6,1c-0.3,0.3-0.6,0.6-0.9,0.9c-0.7,0.9-1,2-1,3.2v5.8
				c0,1.1,0.3,2.3,1,3.2c0.3,0.4,0.7,0.8,1.1,1.1c0.4,0.3,0.9,0.6,1.3,0.8c0.8,0.3,1.6,0.5,2.4,0.6c0.2,0,0.5,0,0.7,0
				c1.1,0,2.1-0.2,3.1-0.6s1.8-1.1,2.4-1.9c0.7-0.9,1-2,1-3.2v-5.8C128.8,19.4,128.7,18.8,128.6,18.2L128.6,18.2z M125.3,25.7
				c0,0.5-0.2,1-0.5,1.3c-0.3,0.4-0.7,0.7-1.1,0.8c-0.4,0.2-0.9,0.3-1.4,0.3c-0.2,0-0.5,0-0.7-0.1c-0.2,0-0.5-0.1-0.7-0.2
				c-0.4-0.2-0.8-0.5-1.1-0.8c-0.3-0.4-0.4-0.9-0.4-1.3v-5.8c0-0.5,0.1-0.9,0.4-1.3c0.3-0.3,0.7-0.6,1.1-0.7
				c0.2-0.1,0.5-0.2,0.7-0.2s0.5-0.1,0.7-0.1c0.5,0,0.9,0.1,1.4,0.3c0.4,0.1,0.8,0.4,1.1,0.7c0.3,0.4,0.5,0.8,0.5,1.3V25.7z
				 M75.5,16.7c-0.6-0.8-1.5-1.4-2.4-1.8c-1-0.4-2-0.6-3.1-0.6c-1,0-2,0.1-2.9,0.5c-0.1,0-0.1,0-0.2,0.1c-1.1,0.5-2.1,1.2-2.9,2.1
				l2,1.9c0.3-0.3,0.7-0.6,1-0.8c0.3-0.1,0.5-0.3,0.8-0.4c0.7-0.2,1.4-0.3,2.2-0.2c0.7,0.1,1.3,0.3,1.9,0.7c0.6,0.4,0.9,1.1,1,1.8v1
				c-1-0.4-2-0.6-3-0.7S68,20.4,67,20.7c-0.1,0-0.1,0-0.2,0.1c-1,0.3-1.9,1-2.5,1.9s-0.9,1.9-0.9,3c0,0.7,0.1,1.3,0.3,2H52.1
				l12.5-16.6l-1.1-2.4H47.8v3.6h11.8L47.1,28.6l1,2.4h16v-3c0.2,0.4,0.4,0.8,0.6,1.2c0.2,0.2,0.4,0.5,0.6,0.7
				c0.4,0.4,0.9,0.7,1.4,0.9c0.1,0.1,0.3,0.1,0.4,0.2c0.9,0.3,1.8,0.5,2.7,0.5c1.1,0.1,2.3,0,3.4-0.2s2.2-0.5,3.2-0.9V19.7
				C76.5,18.6,76.2,17.6,75.5,16.7L75.5,16.7z M73,28.1c-0.7,0.2-1.3,0.3-2,0.4s-1.3,0-2-0.1c-0.6-0.1-1.1-0.4-1.5-0.9
				c-0.2-0.2-0.3-0.5-0.4-0.7C67,26.3,67,25.9,67,25.5c0-0.2,0.1-0.4,0.1-0.6c0.1-0.4,0.3-0.7,0.6-0.9c0.5-0.4,1-0.6,1.6-0.6
				c0.6-0.1,1.3-0.1,1.9,0s1.1,0.2,1.7,0.5L73,28.1L73,28.1z"/>
			<path class="st0" d="M17.3,18.3L18,35L6,24.3L4.3,10.4L17.3,18.3z"/>
			<path class="st0" d="M27.5,13l4.2-2.6L30,24.3L18.1,35.1l0.7-16.7l5.2-3.2l-0.3,8.2L27,21L27.5,13z"/>
		</g>
	</g>
</g>
</svg>
