<svg version="1.2" xmlns="http://www.w3.org/2000/svg" viewBox="0 0 1280 1280" width="1280" height="1280"><style>.a{fill:#ba1b02}.b{fill:#fff}.c{fill:#b4b4b4}.d{fill:#dedede}</style><path class="a" d="m0 0h1280v1280h-1280z"/><path class="b" d="m655 576.8l-15 7.2-15-7.2-208.9-103.2 99.1-37.8 214.3 104zm209.2-103.2l-74.8 36.3-216.8-96.4 67.5-26z"/><path class="b" d="m648.1 320.8l274.2 105.9-38.5 30.9-243.8-94.4-243.8 94.4-38.5-30.9 274.5-105.9zm242 145.9l45.4-17.4-34.1 281.1-6.9 12.5-240.6 216.3-7.8-49.8 214.3-192.5zm-504.7 276.1l-6.8-12.5-34.1-281 45.4 17.4 29.9 250.4 214.1 192.5-7.6 49.6z"/><path class="c" d="m795.2 518.7l69.2-42.2-27.2 226.4-195.7 176.1 10.8-272.7 85.8-52.8-5.7 133.7 53.5-37.5z"/><path class="d" d="m627.7 606.3l10.8 272.5-195.4-175.9-27.5-226.4z"/></svg>