<svg width="205" height="80" viewBox="0 0 205 80" fill="none" xmlns="http://www.w3.org/2000/svg">
<rect y="-0.00012207" width="205" height="80" fill="#BA1B02"/>
<path d="M171.467 48.3062C170.691 48.4788 169.613 48.6514 168.45 48.6514C166.855 48.6514 165.346 48.0905 165.346 46.4939C165.346 45.0269 166.51 43.9913 168.579 43.9913C169.656 43.9913 170.734 44.2502 171.467 44.5522V48.3062ZM171.467 41.7906C170.518 41.3591 169.269 41.1434 168.062 41.1434C164.958 41.1434 161.855 42.8262 161.855 46.4939C161.855 50.4637 165.174 51.5856 168.665 51.5856C171.122 51.5856 173.449 51.0247 175.001 50.4637V39.7626C175.001 35.9654 171.682 34.2394 168.406 34.2394C166.251 34.2394 164.226 34.714 162.416 36.7421L164.398 38.8133C165.217 37.864 166.596 37.4325 167.932 37.4325C169.743 37.3893 171.424 38.2523 171.424 39.892V41.7906H171.467ZM161.381 48.4357C159.442 48.4357 157.675 48.2631 157.675 45.631V37.7777H160.864V34.5414H157.675L157.33 30.6148H154.14V45.6741C154.14 49.9028 156.769 51.6719 160.045 51.6719C160.476 51.6719 160.907 51.6288 161.381 51.5856V48.4357ZM148.968 41.618H142.805V40.1078C142.762 38.4681 144.27 37.6914 145.865 37.6914C147.417 37.6914 148.925 38.5112 148.925 40.0646V41.618H148.968ZM148.882 46.4939C148.279 47.7453 146.986 48.1768 145.779 48.1768C144.27 48.1768 142.805 47.2707 142.805 45.7604V44.5954H152.373V39.9783C152.373 36.0517 149.054 34.2394 145.865 34.2394C142.589 34.2394 139.228 36.0948 139.228 39.9783V45.8467C139.228 49.687 142.546 51.5856 145.865 51.5856C148.063 51.5856 150.563 50.4637 151.856 48.1768L148.882 46.4939ZM129.271 41.316V28.371H125.737V51.2836H129.271V45.4584L130.263 44.4659L135.521 51.3267H139.702L132.762 42.3084L139.745 34.5846H135.262L129.271 41.316ZM111.083 45.8467C111.083 49.7302 114.402 51.5856 117.677 51.5856C120.306 51.5856 123.323 50.3774 124.229 47.1843L120.953 45.9762C120.522 47.4433 119.057 48.1336 117.677 48.1336C116.126 48.1336 114.617 47.3138 114.617 45.8898V39.9352C114.617 38.4681 116.298 37.6914 117.807 37.6914C119.186 37.6914 120.479 38.3818 120.91 39.8489L124.142 38.6407C123.237 35.4476 120.263 34.2394 117.634 34.2394C114.359 34.2394 111.04 36.0948 111.04 40.0215L111.083 45.8467ZM105.566 48.3062C104.79 48.4788 103.713 48.6514 102.549 48.6514C100.911 48.6514 99.4459 48.0905 99.4459 46.4939C99.4459 45.0269 100.61 43.9913 102.678 43.9913C103.756 43.9913 104.833 44.2502 105.566 44.5522V48.3062ZM105.566 41.7906C104.618 41.3591 103.368 41.1434 102.161 41.1434C99.058 41.1434 95.9548 42.8262 95.9548 46.4939C95.9548 50.4637 99.2735 51.5856 102.765 51.5856C105.221 51.5856 107.549 51.0247 109.1 50.4637V39.7626C109.1 35.9654 105.782 34.2394 102.506 34.2394C100.394 34.2394 98.3253 34.714 96.5151 36.7421L98.4977 38.8133C99.3166 37.864 100.696 37.4325 102.032 37.4325C103.842 37.3893 105.523 38.2523 105.523 39.892L105.566 41.7906ZM82.3781 39.9352V32.125H87.5502C90.3086 32.125 91.774 34.0668 91.774 35.9654C91.774 37.864 90.3948 39.892 87.5502 39.892H82.3781V39.9352ZM78.7146 51.2836H82.3781V43.3872H87.5933C92.8084 43.3872 95.4806 39.7626 95.4806 35.9654C95.4806 32.2545 92.8515 28.4141 87.5502 28.4141H78.7146V51.2836Z" fill="white"/>
<path fill-rule="evenodd" clip-rule="evenodd" d="M50.3971 36.0517L49.4489 36.4832L48.5007 36.0517L35.4844 29.5792L41.6908 27.2059L55.0519 33.7216L50.3971 36.0517ZM63.4996 29.5792L58.8448 31.8661L45.3113 25.8251L49.5351 24.1854L63.4996 29.5792Z" fill="white"/>
<path fill-rule="evenodd" clip-rule="evenodd" d="M49.9642 20.043L67.1181 26.6881L64.7045 28.6299L49.4901 22.6752L34.2325 28.5867L31.8189 26.645L48.9729 19.9999H49.9642V20.043ZM65.0924 29.1477L67.937 28.0689L65.8251 45.6741L65.3941 46.4508L50.3521 59.9999L49.878 56.8931L63.2822 44.8542L65.0924 29.1477ZM33.5429 46.4508L33.1119 45.6741L31 28.0689L33.8446 29.1477L35.6979 44.8111L49.1022 56.8499L48.6281 59.9567L33.5429 46.4508Z" fill="white"/>
<path fill-rule="evenodd" clip-rule="evenodd" d="M59.1895 32.427L63.4996 29.7517L61.8186 43.948L49.5781 54.9513L50.2246 37.907L55.6122 34.5845L55.2674 42.9556L58.5861 40.6255L59.1895 32.427Z" fill="#AAAAAA"/>
<path fill-rule="evenodd" clip-rule="evenodd" d="M48.7163 37.907L49.3628 54.9513L37.1654 43.948L35.4414 29.7517L48.7163 37.907Z" fill="#D7D7D7"/>
</svg>
